<?xml version="1.0" encoding="UTF-8" standalone="no"?>
<svg xmlns="http://www.w3.org/2000/svg" xmlns:xlink="http://www.w3.org/1999/xlink" width="400" height="400" viewBox="0 0 400 400">
  <defs>
    <linearGradient id="gradient1" x1="0%" y1="0%" x2="100%" y2="0%">
      <stop offset="0%" style="stop-color:#4feaf9;stop-opacity:1" />
      <stop offset="50%" style="stop-color:#9f8cf7;stop-opacity:1" />
      <stop offset="100%" style="stop-color:#ff6b9e;stop-opacity:1" />
    </linearGradient>
    <linearGradient id="gradient2" x1="0%" y1="0%" x2="100%" y2="0%">
      <stop offset="0%" style="stop-color:#4feaf9;stop-opacity:1" />
      <stop offset="100%" style="stop-color:#9f8cf7;stop-opacity:1" />
    </linearGradient>
  </defs>
  
  <!-- Cute character body -->
  <rect x="120" y="100" width="160" height="160" rx="40" ry="40" fill="url(#gradient1)" />
  
  <!-- Pixelated corners to create the melting/pixelated effect -->
  <rect x="100" y="90" width="20" height="20" fill="url(#gradient1)" opacity="0.8" />
  <rect x="280" y="90" width="20" height="20" fill="url(#gradient1)" opacity="0.8" />
  <rect x="100" y="250" width="20" height="20" fill="url(#gradient1)" opacity="0.8" />
  <rect x="280" y="250" width="20" height="20" fill="url(#gradient1)" opacity="0.8" />
  
  <!-- Pixels around the character -->
  <rect x="90" y="110" width="10" height="10" fill="url(#gradient1)" opacity="0.7" />
  <rect x="300" y="110" width="10" height="10" fill="url(#gradient1)" opacity="0.7" />
  <rect x="90" y="240" width="10" height="10" fill="url(#gradient1)" opacity="0.7" />
  <rect x="300" y="240" width="10" height="10" fill="url(#gradient1)" opacity="0.7" />
  
  <!-- More floating pixels -->
  <rect x="100" y="70" width="15" height="15" fill="url(#gradient1)" opacity="0.6" />
  <rect x="130" y="80" width="10" height="10" fill="url(#gradient1)" opacity="0.5" />
  <rect x="270" y="80" width="10" height="10" fill="url(#gradient1)" opacity="0.5" />
  <rect x="290" y="70" width="15" height="15" fill="url(#gradient1)" opacity="0.6" />
  
  <!-- Eyes -->
  <circle cx="170" cy="160" r="20" fill="white" />
  <circle cx="230" cy="160" r="20" fill="white" />
  <circle cx="170" cy="160" r="10" fill="black" />
  <circle cx="230" cy="160" r="10" fill="black" />
  
  <!-- Smile -->
  <path d="M 170 200 Q 200 230 230 200" stroke="black" stroke-width="8" fill="none" />
  
  <!-- Pink cheeks -->
  <circle cx="150" cy="190" r="15" fill="#ff6b9e" opacity="0.6" />
  <circle cx="250" cy="190" r="15" fill="#ff6b9e" opacity="0.6" />
  
  <!-- Arms -->
  <path d="M 110 180 Q 80 180 60 150" stroke="url(#gradient2)" stroke-width="15" stroke-linecap="round" />
  <path d="M 290 180 Q 320 180 340 150" stroke="#ff6b9e" stroke-width="15" stroke-linecap="round" />
  
  <!-- Legs -->
  <path d="M 160 260 Q 160 300 130 320" stroke="url(#gradient2)" stroke-width="15" stroke-linecap="round" />
  <path d="M 240 260 Q 240 300 270 320" stroke="#ff6b9e" stroke-width="15" stroke-linecap="round" />
</svg>
